<svg width="259" height="199" viewBox="0 0 259 199" fill="none" xmlns="http://www.w3.org/2000/svg">
<path d="M215.06 91.8401C228.233 91.8401 238.683 95.8301 246.41 103.81C254.263 111.79 258.19 122.873 258.19 137.06V199H225.89V141.43C225.89 134.59 224.053 129.333 220.38 125.66C216.833 121.86 211.893 119.96 205.56 119.96C199.227 119.96 194.223 121.86 190.55 125.66C187.003 129.333 185.23 134.59 185.23 141.43V199H152.93V141.43C152.93 134.59 151.093 129.333 147.42 125.66C143.873 121.86 138.933 119.96 132.6 119.96C126.267 119.96 121.263 121.86 117.59 125.66C114.043 129.333 112.27 134.59 112.27 141.43V199H79.78V92.9801H112.27V106.28C115.563 101.847 119.87 98.3634 125.19 95.8301C130.51 93.1701 136.527 91.8401 143.24 91.8401C151.22 91.8401 158.313 93.5501 164.52 96.9701C170.853 100.39 175.793 105.267 179.34 111.6C183.013 105.773 188.017 101.023 194.35 97.3501C200.683 93.6768 207.587 91.8401 215.06 91.8401Z" fill="#F1F1F1" fill-opacity="0.8"/>
<path d="M47.0601 0.459961C54.5334 0.459961 61.0567 1.97996 66.6301 5.01996C72.3301 8.05996 76.7001 12.05 79.7401 16.99V1.97997H112.23V107.81C112.23 117.563 110.267 126.367 106.34 134.22C102.54 142.2 96.6501 148.533 88.6701 153.22C80.8167 157.907 71.0001 160.25 59.2201 160.25C43.5134 160.25 30.7834 156.513 21.0301 149.04C11.2767 141.693 5.7034 131.687 4.31007 119.02H36.4201C37.4334 123.073 39.8401 126.24 43.6401 128.52C47.4401 130.927 52.1267 132.13 57.7001 132.13C64.4134 132.13 69.7334 130.167 73.6601 126.24C77.7134 122.44 79.7401 116.297 79.7401 107.81V92.8C76.5734 97.74 72.2034 101.793 66.6301 104.96C61.0567 108 54.5334 109.52 47.0601 109.52C38.3201 109.52 30.4034 107.303 23.3101 102.87C16.2167 98.31 10.5801 91.9133 6.40007 83.68C2.34674 75.32 0.320068 65.6933 0.320068 54.8C0.320068 43.9066 2.34674 34.3433 6.40007 26.11C10.5801 17.8766 16.2167 11.5433 23.3101 7.10996C30.4034 2.67663 38.3201 0.459961 47.0601 0.459961ZM79.7401 54.99C79.7401 46.8833 77.4601 40.4866 72.9001 35.8C68.4667 31.1133 63.0201 28.77 56.5601 28.77C50.1001 28.77 44.5901 31.1133 40.0301 35.8C35.5967 40.36 33.3801 46.6933 33.3801 54.8C33.3801 62.9066 35.5967 69.3666 40.0301 74.18C44.5901 78.8666 50.1001 81.21 56.5601 81.21C63.0201 81.21 68.4667 78.8666 72.9001 74.18C77.4601 69.4933 79.7401 63.0966 79.7401 54.99Z" fill="white" fill-opacity="0.8"/>
</svg>
